# xmcd
#
# Track frame offsets:
#	150
#	88315
#	169474
#	288898
#
# Disc length: 4009 seconds
#
# Revision: 2
# Processed by: cddbd v1.5.2PL0 Copyright (c) Steve Scherf et al.
# Submitted via: audiograbber 1.83.01
#
DISCID=350fa704
DTITLE=BR2 Radiowissen - Kleintiere machen Staat
DYEAR=2010
DGENRE=Wissenschaft
TTITLE0=Klein aber mächtig - Insekten beherrschen die Erde
TTITLE1=Wenn Ameisen streiten - Kooperation und Konflikt
TTITLE2=Erfolgsmodell der Evolution - Der Bienenstaat
TTITLE3=Daten - CD
EXTD=
EXTT0=
EXTT1=
EXTT2=
EXTT3=
PLAYORDER=
